<svg width="1200" height="800" viewBox="0 0 1200 800" fill="none" xmlns="http://www.w3.org/2000/svg" role="img" aria-labelledby="title desc">
  <title id="title">MehyarSoft neutral systems visual</title>
  <desc id="desc">Abstract brand visual with connected cards, workflow nodes, and the MehyarSoft mark.</desc>
  <rect width="1200" height="800" rx="48" fill="#F5FAFC"/>
  <rect x="1" y="1" width="1198" height="798" rx="47" stroke="#0B3B4A" stroke-opacity="0.08" stroke-width="2"/>
  <circle cx="940" cy="130" r="220" fill="#0F6B7A" fill-opacity="0.10"/>
  <circle cx="190" cy="690" r="260" fill="#F2B705" fill-opacity="0.15"/>
  <path d="M268 414C357 333 475 333 566 414C657 495 777 495 868 414" stroke="#0F6B7A" stroke-width="10" stroke-linecap="round" stroke-dasharray="2 28"/>
  <rect x="130" y="170" width="300" height="190" rx="28" fill="white" stroke="#0B3B4A" stroke-opacity="0.14" stroke-width="2"/>
  <rect x="470" y="130" width="300" height="230" rx="28" fill="white" stroke="#0B3B4A" stroke-opacity="0.14" stroke-width="2"/>
  <rect x="810" y="170" width="260" height="190" rx="28" fill="white" stroke="#0B3B4A" stroke-opacity="0.14" stroke-width="2"/>
  <rect x="210" y="470" width="310" height="180" rx="28" fill="white" stroke="#0B3B4A" stroke-opacity="0.14" stroke-width="2"/>
  <rect x="650" y="470" width="340" height="180" rx="28" fill="white" stroke="#0B3B4A" stroke-opacity="0.14" stroke-width="2"/>
  <g opacity="0.92">
    <rect x="176" y="218" width="128" height="14" rx="7" fill="#0B3B4A"/>
    <rect x="176" y="252" width="206" height="12" rx="6" fill="#0F6B7A" fill-opacity="0.32"/>
    <rect x="176" y="284" width="168" height="12" rx="6" fill="#0F6B7A" fill-opacity="0.22"/>
    <rect x="516" y="186" width="208" height="14" rx="7" fill="#0B3B4A"/>
    <rect x="516" y="224" width="170" height="12" rx="6" fill="#0F6B7A" fill-opacity="0.32"/>
    <rect x="516" y="258" width="122" height="12" rx="6" fill="#0F6B7A" fill-opacity="0.22"/>
    <rect x="858" y="218" width="152" height="14" rx="7" fill="#0B3B4A"/>
    <rect x="858" y="252" width="158" height="12" rx="6" fill="#0F6B7A" fill-opacity="0.32"/>
    <rect x="858" y="284" width="110" height="12" rx="6" fill="#0F6B7A" fill-opacity="0.22"/>
  </g>
  <g transform="translate(535 505)">
    <rect x="0" y="0" width="130" height="130" rx="30" fill="#0B3B4A"/>
    <path d="M36 47C36 35.9543 44.9543 27 56 27H74C85.0457 27 94 35.9543 94 47V59H105C113.284 59 120 65.7157 120 74V84C120 92.2843 113.284 99 105 99H25C16.7157 99 10 92.2843 10 84V74C10 65.7157 16.7157 59 25 59H36V47Z" fill="white"/>
    <circle cx="52" cy="51" r="8" fill="#0B3B4A"/>
    <circle cx="78" cy="51" r="8" fill="#0B3B4A"/>
    <rect x="50" y="72" width="30" height="9" rx="4.5" fill="#0F6B7A"/>
  </g>
  <circle cx="365" cy="560" r="18" fill="#F2B705"/>
  <circle cx="820" cy="560" r="18" fill="#F2B705"/>
  <path d="M520 560H425" stroke="#0F6B7A" stroke-width="8" stroke-linecap="round"/>
  <path d="M775 560H675" stroke="#0F6B7A" stroke-width="8" stroke-linecap="round"/>
</svg>
